<svg width="399" height="512" viewBox="0 0 399 512" fill="none" xmlns="http://www.w3.org/2000/svg">
<path d="M156.371 30.9062H241.941V45.3047H272.844V28.8906C272.848 12.9609 259.895 0 243.973 0H154.34C138.418 0 125.465 12.9609 125.465 28.8906V45.3047H156.371V30.9062Z" fill="#E4E4E4"/>
<path d="M344.211 167.75H54.1016C46.1523 167.75 39.8945 174.531 40.5351 182.457L64.7891 482.363C66.1406 499.105 80.1055 512 96.8828 512H301.426C318.203 512 332.168 499.105 333.52 482.359L357.773 182.457C358.418 174.531 352.16 167.75 344.211 167.75V167.75ZM124.348 480.012C124.023 480.031 123.699 480.043 123.379 480.043C115.277 480.043 108.477 473.734 107.973 465.539L92.7734 219.332C92.25 210.812 98.7305 203.48 107.246 202.957C115.734 202.441 123.098 208.906 123.621 217.43L138.816 463.637C139.344 472.156 132.863 479.484 124.348 480.012V480.012ZM214.781 464.59C214.781 473.121 207.863 480.039 199.328 480.039C190.793 480.039 183.875 473.121 183.875 464.59V218.379C183.875 209.844 190.793 202.926 199.328 202.926C207.859 202.926 214.781 209.844 214.781 218.379V464.59ZM305.539 219.289L291.027 465.496C290.547 473.707 283.734 480.039 275.617 480.039C275.312 480.039 275.004 480.031 274.695 480.016C266.176 479.512 259.676 472.199 260.18 463.68L274.687 217.469C275.187 208.949 282.477 202.449 291.02 202.953C299.539 203.453 306.039 210.77 305.539 219.289V219.289Z" fill="#E4E4E4"/>
<path d="M397.648 120.062L387.5 89.6406C384.824 81.6211 377.316 76.2109 368.859 76.2109H29.4492C20.9961 76.2109 13.4843 81.6211 10.8125 89.6406L0.664024 120.062C-1.29301 125.93 1.25387 131.914 6.00777 134.898C7.94527 136.113 10.2382 136.844 12.7578 136.844H385.555C388.074 136.844 390.371 136.113 392.305 134.895C397.059 131.91 399.605 125.926 397.648 120.062Z" fill="#E4E4E4"/>
</svg>
