<svg width="512" height="512" viewBox="0 0 512 512" fill="none" xmlns="http://www.w3.org/2000/svg">
<path d="M346 361H406C414.291 361 421 354.291 421 346V166C421 157.709 414.291 151 406 151H346C337.709 151 331 157.709 331 166V346C331 354.291 337.709 361 346 361ZM361 181H391V331H361V181ZM497 31H271V15C271 6.709 264.291 0 256 0C247.709 0 241 6.709 241 15V31H15C6.709 31 0 37.709 0 46V106C0 114.291 6.709 121 15 121H30V407C30 415.291 36.709 422 45 422H175.194L155.195 482H136C127.709 482 121 488.709 121 497C121 505.291 127.709 512 136 512H166C171.515 512 177.829 507.987 179.976 502.081C181.406 498.15 206.023 424.703 206.818 422H241V497C241 505.291 247.709 512 256 512C264.291 512 271 505.291 271 497V422H305.195C307.938 430.188 295.267 392.334 332.024 502.081C334.16 507.957 340.465 512 346 512H376C384.291 512 391 505.291 391 497C391 488.709 384.291 482 376 482H356.805L336.806 422H467C475.291 422 482 415.291 482 407V121H497C505.291 121 512 114.291 512 106V46C512 37.709 505.291 31 497 31ZM452 392H60V121H452V392ZM482 91H30V61H482V91ZM226 361H286C294.291 361 301 354.291 301 346V226C301 217.709 294.291 211 286 211H226C217.709 211 211 217.709 211 226V346C211 354.291 217.709 361 226 361ZM241 241H271V331H241V241ZM106 361H166C174.291 361 181 354.291 181 346V286C181 277.709 174.291 271 166 271H106C97.709 271 91 277.709 91 286V346C91 354.291 97.709 361 106 361ZM121 301H151V331H121V301Z" fill="url(#paint0_linear)"/>
<defs>
<linearGradient id="paint0_linear" x1="256" y1="512" x2="256" y2="0" gradientUnits="userSpaceOnUse">
<stop stop-color="white"/>
<stop offset="1" stop-color="#DFDFDF"/>
</linearGradient>
</defs>
</svg>
